<svg width="48" height="48" viewBox="0 0 48 48" fill="none" xmlns="http://www.w3.org/2000/svg">
<path d="M32.3941 4H15.6258C8.34216 4 4 8.34 4 15.62V32.36C4 39.66 8.34216 44 15.6258 44H32.3741C39.6578 44 43.9999 39.66 43.9999 32.38V15.62C44.0199 8.34 39.6778 4 32.3941 4ZM33.3346 22.5L30.093 24.54L30.3731 29.34C30.6333 32.02 29.7128 32.94 27.1715 33.24L17.0265 34.44C16.8867 34.4591 16.7508 34.47 16.6184 34.4723C16.2432 34.4788 16.1232 34.0428 16.3886 33.7775L19.7679 30.4C20.3481 29.82 20.3481 28.86 19.7679 28.28C19.1676 27.7 18.2271 27.7 17.6268 28.28L14.2672 31.6549C14.0022 31.9211 13.5658 31.8014 13.5725 31.4258C13.5748 31.2941 13.5858 31.1591 13.6048 31.02L14.7854 20.88C15.1055 18.34 16.026 17.52 18.7073 17.68L23.4897 17.96L25.5507 14.7C26.4912 13.22 28.4122 13.14 29.8129 14.54L33.5147 18.24C34.8354 19.54 34.7553 21.6 33.3346 22.5Z" fill="#E9204F"/>
</svg>
