<svg width="48" height="48" viewBox="0 0 48 48" fill="none" xmlns="http://www.w3.org/2000/svg">
<path d="M41.2414 6.81698L28.3264 19.7237M12.063 25.4632L15.9289 13.8727C15.9906 13.6869 16.0963 13.5187 16.2369 13.3824C16.3775 13.2462 16.5489 13.1458 16.7366 13.0898L40.4357 6.05036C40.6492 5.98699 40.876 5.98336 41.0915 6.03986C41.3069 6.09636 41.5027 6.21083 41.6575 6.37082C41.8124 6.5308 41.9204 6.73017 41.9697 6.94722C42.0191 7.16427 42.0079 7.39069 41.9375 7.60184L34.242 30.6693C34.1869 30.8349 34.0967 30.9868 33.9777 31.1145C33.8586 31.2422 33.7135 31.3428 33.5521 31.4096L22.6198 35.9079C22.3975 35.9996 22.1531 36.0235 21.9172 35.9766C21.6814 35.9297 21.4648 35.814 21.2946 35.6442L12.3572 26.7105C12.1969 26.5505 12.0845 26.349 12.0325 26.1287C11.9805 25.9083 11.9911 25.6779 12.063 25.4632Z" stroke="white" stroke-width="3" stroke-linecap="round" stroke-linejoin="round"/>
<path d="M11.8356 26.2506L6.17259 31.9151C5.42178 32.6661 5 33.6845 5 34.7464C5 35.8082 5.42178 36.8266 6.17259 37.5776L10.4178 41.8265C10.7897 42.1985 11.2313 42.4937 11.7173 42.695C12.2033 42.8964 12.7242 43 13.2503 43C13.7764 43 14.2973 42.8964 14.7833 42.695C15.2693 42.4937 15.7109 42.1985 16.0828 41.8265L21.7458 36.162M23.8724 24.1282C24.1514 24.407 24.4826 24.6282 24.8471 24.779C25.2116 24.9299 25.6023 25.0075 25.9967 25.0074C26.3912 25.0073 26.7818 24.9295 27.1463 24.7785C27.5107 24.6275 27.8418 24.4061 28.1207 24.1271C28.3995 23.8482 28.6207 23.517 28.7716 23.1525C28.9225 22.7881 29.0001 22.3975 29 22.003C28.9999 21.6085 28.9221 21.218 28.7711 20.8536C28.62 20.4892 28.3987 20.1581 28.1197 19.8793C27.5562 19.3161 26.792 18.9998 25.9953 19C25.1986 19.0002 24.4346 19.3168 23.8714 19.8803C23.3082 20.4437 22.9919 21.2078 22.9921 22.0044C22.9923 22.801 23.3089 23.565 23.8724 24.1282Z" stroke="white" stroke-width="3" stroke-linecap="round" stroke-linejoin="round"/>
</svg>
