<svg width="48" height="48" viewBox="0 0 48 48" fill="none" xmlns="http://www.w3.org/2000/svg">
<path d="M11.1832 19.9349L15.0741 21.5791C15.5397 20.6491 16.0219 19.7522 16.5207 18.8886C17.0195 18.025 17.5683 17.1614 18.1669 16.2977L15.3734 15.7497L11.1832 19.9349ZM18.2666 24.0703L23.9533 29.7005C25.35 29.169 26.8465 28.3552 28.4428 27.2591C30.0391 26.1629 31.5356 24.9173 32.9323 23.5223C35.2602 21.1971 37.0813 18.6149 38.3955 15.7756C39.7098 12.9363 40.2831 10.3202 40.1155 7.92727C37.7211 7.76119 35.0939 8.3345 32.2339 9.6472C29.374 10.9599 26.78 12.7782 24.4521 15.102C23.0554 16.497 21.8083 17.9918 20.7109 19.5861C19.6135 21.1805 18.7987 22.6752 18.2666 24.0703ZM27.1458 20.8317C26.381 20.0678 25.9985 19.1297 25.9985 18.0177C25.9985 16.9056 26.381 15.9669 27.1458 15.2016C27.9107 14.4376 28.8585 14.0556 29.9892 14.0556C31.1199 14.0556 32.0677 14.4376 32.8325 15.2016C33.5974 15.9656 33.9799 16.9043 33.9799 18.0177C33.9799 19.1311 33.5974 20.0691 32.8325 20.8317C32.0677 21.5957 31.1199 21.9777 29.9892 21.9777C28.8585 21.9777 27.9107 21.5957 27.1458 20.8317ZM28.0936 36.8253L32.2838 32.6401L31.7351 29.8499C30.8705 30.4478 30.0058 30.9872 29.1412 31.4682C28.2765 31.9492 27.3786 32.4228 26.4475 32.8892L28.0936 36.8253ZM43.7071 4.29011C44.339 8.30926 43.9485 12.2208 42.5358 16.0247C41.1231 19.8286 38.6868 23.4565 35.2269 26.9083L36.2246 31.8429C36.3576 32.5072 36.3244 33.1549 36.1248 33.786C35.9253 34.4171 35.5927 34.9652 35.1272 35.4302L26.7468 43.8007L22.5566 33.9853L14.0265 25.4654L4.19953 21.2802L12.53 12.9097C12.9956 12.4447 13.553 12.1125 14.2021 11.9132C14.8513 11.7139 15.5077 11.6807 16.1715 11.8136L21.11 12.81C24.5685 9.35557 28.1934 6.91418 31.9845 5.48589C35.7757 4.05759 39.6832 3.659 43.7071 4.29011ZM7.74125 31.7931C8.90519 30.6305 10.3272 30.0413 12.0073 30.0253C13.6873 30.0094 15.1087 30.582 16.2713 31.7432C17.4352 32.9058 18.0092 34.3261 17.9933 36.0042C17.9773 37.6823 17.3867 39.1019 16.2214 40.2632C15.39 41.0936 14.0019 41.8077 12.0571 42.4056C10.1124 43.0035 7.42665 43.535 4 44C4.46558 40.5787 4.99767 37.8962 5.59626 35.9524C6.19486 34.0086 6.90986 32.6221 7.74125 31.7931ZM10.5846 34.5832C10.252 34.9154 9.91948 35.5219 9.58693 36.4028C9.25437 37.2837 9.02158 38.1719 8.88856 39.0674C9.78646 38.9345 10.6764 38.71 11.5583 38.3938C12.4403 38.0776 13.0468 37.754 13.3781 37.4232C13.7771 37.0246 13.9933 36.543 14.0265 35.9783C14.0598 35.4136 13.8769 34.932 13.4778 34.5334C13.0788 34.1348 12.5966 33.9435 12.0312 33.9594C11.4659 33.9754 10.9837 34.1833 10.5846 34.5832Z" fill="#E9204F"/>
</svg>
